<?xml version="1.0" encoding="utf-8"?>
<!-- Generator: Adobe Illustrator 26.3.1, SVG Export Plug-In . SVG Version: 6.00 Build 0)  -->
<svg version="1.0" id="Layer_1" xmlns="http://www.w3.org/2000/svg" xmlns:xlink="http://www.w3.org/1999/xlink" x="0px" y="0px"
	 viewBox="0 0 3840 2160" style="enable-background:new 0 0 3840 2160;" xml:space="preserve">
<style type="text/css">
	.st0{clip-path:url(#SVGID_00000013904513218983643100000007718537712273247894_);fill:#FAD568;}
	.st1{clip-path:url(#SVGID_00000176733740920255655230000017679081154823288733_);}
	.st2{fill:#FFFFFF;}
	.st3{font-family:'FatFrank-Heavy';}
	.st4{font-size:240.1256px;}
	.st5{letter-spacing:-7;}
	.st6{font-size:150.0298px;}
	.st7{fill:#231F20;}
	.st8{font-size:83.0225px;}
	.st9{font-family:'MuseoSans-700';}
	.st10{font-size:68.4363px;}
	.st11{clip-path:url(#SVGID_00000058555921869402660930000007595730240863068568_);fill:#FAD568;}
	.st12{clip-path:url(#SVGID_00000085968273890056827970000007270282900765990802_);}
	.st13{fill:#FAD568;}
	.st14{font-size:160.0165px;}
	.st15{font-family:'MuseoSans-900';}
	.st16{font-size:53.4563px;}
	.st17{clip-path:url(#SVGID_00000163065383908888336940000004221533866201352889_);fill:#FAD568;}
	.st18{clip-path:url(#SVGID_00000006671657973251089340000004567412028928263347_);}
	.st19{font-size:144.6741px;}
	.st20{clip-path:url(#SVGID_00000129191135356435380050000009703943995585146500_);}
	.st21{clip-path:url(#SVGID_00000022528301817614705890000013868606281488601486_);}
	.st22{clip-path:url(#SVGID_00000129191135356435380050000009703943995585146500_);fill:#FAD568;}
	.st23{clip-path:url(#SVGID_00000129191135356435380050000009703943995585146500_);fill:#FFFFFF;}
</style>
<g>
	<defs>
		<rect id="SVGID_1_" x="0.56" y="0.01" width="3849.67" height="2409.82"/>
	</defs>
	<clipPath id="SVGID_00000054234970006170458680000006185652424294466954_">
		<use xlink:href="#SVGID_1_"  style="overflow:visible;"/>
	</clipPath>
	<path style="clip-path:url(#SVGID_00000054234970006170458680000006185652424294466954_);fill:#FAD568;" d="M0.56,555.37v495.18
		c136.74,0,247.59-110.85,247.59-247.59C248.15,666.22,137.3,555.37,0.56,555.37"/>
	
		<rect x="0.56" y="88.94" style="clip-path:url(#SVGID_00000054234970006170458680000006185652424294466954_);fill:#FAD568;" width="3839.44" height="351.74"/>
</g>
<g>
	<defs>
		<rect id="SVGID_00000144301499263780280540000013849751504983531917_" x="0.56" y="0" width="3849.67" height="2409.82"/>
	</defs>
	<clipPath id="SVGID_00000181776952770388230530000005489645049372063877_">
		<use xlink:href="#SVGID_00000144301499263780280540000013849751504983531917_"  style="overflow:visible;"/>
	</clipPath>
	<g style="clip-path:url(#SVGID_00000181776952770388230530000005489645049372063877_);">
		<text transform="matrix(1 0 0 1 1392.3411 357.5617)"><tspan x="0" y="0" class="st2 st3 st4 st5">C</tspan><tspan x="137.59" y="0" class="st2 st3 st4">OMBOS</tspan></text>
	</g>
	<g style="clip-path:url(#SVGID_00000181776952770388230530000005489645049372063877_);">
		<text transform="matrix(1 0 0 1 63.5637 849.345)" class="st2 st3 st6">1</text>
	</g>
	<g style="clip-path:url(#SVGID_00000181776952770388230530000005489645049372063877_);">
		<text transform="matrix(1 0 0 1 481.3134 689.1348)" class="st7 st3 st8">Large Combo</text>
	</g>
	<g style="clip-path:url(#SVGID_00000181776952770388230530000005489645049372063877_);">
		<text transform="matrix(1 0 0 1 476.8657 804.1752)"><tspan x="0" y="0" class="st7 st9 st10">Chic</tspan><tspan x="146.52" y="0" class="st7 st9 st10">k</tspan><tspan x="183.82" y="0" class="st7 st9 st10">en, Lamb, Mi</tspan><tspan x="589.3" y="0" class="st7 st9 st10">x</tspan><tspan x="624.75" y="0" class="st7 st9 st10">ed Me</tspan><tspan x="819.1" y="0" class="st7 st9 st10">a</tspan><tspan x="855.44" y="0" class="st7 st9 st10">t or </tspan></text>
	</g>
	<g style="clip-path:url(#SVGID_00000181776952770388230530000005489645049372063877_);">
		<text transform="matrix(1 0 0 1 476.8657 886.2975)"><tspan x="0" y="0" class="st7 st9 st10">Fel</tspan><tspan x="93.55" y="0" class="st7 st9 st10">a</tspan><tspan x="129.89" y="0" class="st7 st9 st10">fel with a small chips and a</tspan></text>
	</g>
	<g style="clip-path:url(#SVGID_00000181776952770388230530000005489645049372063877_);">
		<text transform="matrix(1 0 0 1 476.8657 968.42)" class="st7 st9 st10">can of drink.</text>
	</g>
</g>
<g>
	<defs>
		<rect id="SVGID_00000134963287361964961610000008653465524813439392_" x="0.56" y="0.01" width="3849.67" height="2409.82"/>
	</defs>
	<clipPath id="SVGID_00000059994662215436706380000012427797942855212942_">
		<use xlink:href="#SVGID_00000134963287361964961610000008653465524813439392_"  style="overflow:visible;"/>
	</clipPath>
	
		<rect x="1907.23" y="467.5" style="clip-path:url(#SVGID_00000059994662215436706380000012427797942855212942_);fill:#FAD568;" width="36.33" height="1692.5"/>
</g>
<g>
	<g>
		<defs>
			<rect id="SVGID_00000062187714886248971680000015442221520247356849_" x="0.56" y="1038.04" width="1336.35" height="1121.96"/>
		</defs>
		<clipPath id="SVGID_00000026163005469677801410000013298796504862292657_">
			<use xlink:href="#SVGID_00000062187714886248971680000015442221520247356849_"  style="overflow:visible;"/>
		</clipPath>
		<g style="clip-path:url(#SVGID_00000026163005469677801410000013298796504862292657_);">
			<defs>
				<circle id="SVGID_00000018917861179752978210000011861231668666269580_" cx="529.54" cy="1724.81" r="686.77"/>
			</defs>
			<clipPath id="SVGID_00000178903299651645411200000017366183868885882779_">
				<use xlink:href="#SVGID_00000018917861179752978210000011861231668666269580_"  style="overflow:visible;"/>
			</clipPath>
			<g style="clip-path:url(#SVGID_00000178903299651645411200000017366183868885882779_);">
				
					<image style="overflow:visible;" width="4500" height="3000" xlink:href="Sisters_ProductImages_005_HI-RES.jpg"  transform="matrix(0.4302 0 0 0.4302 -410.6248 1038.0372)">
				</image>
			</g>
		</g>
	</g>
	<path class="st13" d="M1504.36,2104.31c-93.3,0-181.01-36.33-246.98-102.3c-65.97-65.97-102.3-153.68-102.3-246.98
		c0-93.3,36.33-181.01,102.3-246.98c65.97-65.97,153.68-102.3,246.98-102.3c93.3,0,181.01,36.33,246.98,102.3
		c65.97,65.97,102.3,153.68,102.3,246.98c0,93.3-36.33,181.01-102.3,246.98C1685.37,2067.98,1597.65,2104.31,1504.36,2104.31"/>
	<text transform="matrix(1 0 0 1 1320.5056 1719.9812)" class="st2 st3 st14">17.90</text>
	<text transform="matrix(1 0 0 1 1266.7233 1838.6823)"><tspan x="0" y="0" class="st2 st15 st16">U</tspan><tspan x="39.77" y="0" class="st2 st15 st16">psize your drink</tspan></text>
	<text transform="matrix(1 0 0 1 1303.3201 1902.8296)" class="st2 st15 st16">&amp; chips for 2.50</text>
	<path class="st2" d="M1504.36,1428.35c180.42,0,326.68,146.26,326.68,326.68c0,180.42-146.26,326.68-326.68,326.68
		c-180.42,0-326.68-146.26-326.68-326.68C1177.68,1574.61,1323.94,1428.35,1504.36,1428.35 M1504.36,1383.16
		c-50.18,0-98.89,9.84-144.76,29.24c-44.29,18.73-84.05,45.54-118.19,79.68c-34.14,34.14-60.94,73.9-79.68,118.19
		c-19.4,45.88-29.24,94.58-29.24,144.76c0,50.18,9.84,98.89,29.24,144.76c18.73,44.29,45.54,84.05,79.68,118.19
		c34.14,34.14,73.9,60.94,118.19,79.68c45.88,19.4,94.58,29.24,144.76,29.24c50.18,0,98.89-9.84,144.76-29.24
		c44.29-18.73,84.05-45.54,118.19-79.68c34.14-34.14,60.94-73.9,79.68-118.19c19.4-45.88,29.24-94.58,29.24-144.76
		c0-50.18-9.84-98.89-29.24-144.76c-18.73-44.29-45.54-84.05-79.68-118.19c-34.14-34.14-73.9-60.94-118.19-79.68
		C1603.25,1393,1554.54,1383.16,1504.36,1383.16"/>
</g>
<g id="Layer_2">
	<text transform="matrix(1 0 0 1 2494.7815 680.7716)" class="st7 st3 st8">                                           Small Combo </text>
	<text transform="matrix(1 0 0 1 2501.3899 797.7606)"><tspan x="0" y="0" class="st7 st9 st10">Chic</tspan><tspan x="146.52" y="0" class="st7 st9 st10">k</tspan><tspan x="183.82" y="0" class="st7 st9 st10">en, Lamb, Mi</tspan><tspan x="589.3" y="0" class="st7 st9 st10">x</tspan><tspan x="624.74" y="0" class="st7 st9 st10">ed Me</tspan><tspan x="819.1" y="0" class="st7 st9 st10">a</tspan><tspan x="855.44" y="0" class="st7 st9 st10">t or</tspan></text>
	<text transform="matrix(1 0 0 1 2519.8691 879.883)"><tspan x="0" y="0" class="st7 st9 st10">Fel</tspan><tspan x="93.55" y="0" class="st7 st9 st10">a</tspan><tspan x="129.96" y="0" class="st7 st9 st10">fel with small chips and a </tspan></text>
	<text transform="matrix(1 0 0 1 3068.9307 962.0064)" class="st7 st9 st10">can of drink.</text>
</g>
<g>
	<defs>
		<rect id="SVGID_00000163753368342403237880000002834774947104691869_" x="0.56" y="0.01" width="3849.67" height="2409.82"/>
	</defs>
	<clipPath id="SVGID_00000075137927986065642180000016315767510898219662_">
		<use xlink:href="#SVGID_00000163753368342403237880000002834774947104691869_"  style="overflow:visible;"/>
	</clipPath>
	<path style="clip-path:url(#SVGID_00000075137927986065642180000016315767510898219662_);fill:#FAD568;" d="M3839.24,1040.52
		v-477.5c-131.86,0-238.75,106.89-238.75,238.75C3600.49,933.63,3707.38,1040.52,3839.24,1040.52"/>
</g>
<g>
	<defs>
		<rect id="SVGID_00000154394910185794810420000017742448611569821586_" x="0.56" y="0" width="3849.67" height="2409.82"/>
	</defs>
	<clipPath id="SVGID_00000116230645929139875260000017191932204561637038_">
		<use xlink:href="#SVGID_00000154394910185794810420000017742448611569821586_"  style="overflow:visible;"/>
	</clipPath>
	<g style="clip-path:url(#SVGID_00000116230645929139875260000017191932204561637038_);">
		<text transform="matrix(1 0 0 1 3707.1365 838.015)" class="st2 st3 st19">2</text>
	</g>
</g>
<g>
	<defs>
		<rect id="SVGID_00000088815251861960734330000004968340784486607766_" x="0.56" y="0.01" width="3849.67" height="2409.82"/>
	</defs>
	<clipPath id="SVGID_00000178899730247178501310000015493332044935752119_">
		<use xlink:href="#SVGID_00000088815251861960734330000004968340784486607766_"  style="overflow:visible;"/>
	</clipPath>
	<g style="clip-path:url(#SVGID_00000178899730247178501310000015493332044935752119_);">
		<defs>
			
				<rect id="SVGID_00000047744898551937841830000000919919765462330522_" x="1943.56" y="1038.04" width="1336.35" height="1121.96"/>
		</defs>
		<clipPath id="SVGID_00000183213091195872309900000012406359127201236121_">
			<use xlink:href="#SVGID_00000047744898551937841830000000919919765462330522_"  style="overflow:visible;"/>
		</clipPath>
		<g style="clip-path:url(#SVGID_00000183213091195872309900000012406359127201236121_);">
			<defs>
				<circle id="SVGID_00000180353695159012452680000000697957530069554862_" cx="2472.54" cy="1724.81" r="686.77"/>
			</defs>
			<clipPath id="SVGID_00000148636013085948665730000008586257405637307279_">
				<use xlink:href="#SVGID_00000180353695159012452680000000697957530069554862_"  style="overflow:visible;"/>
			</clipPath>
			<g style="clip-path:url(#SVGID_00000148636013085948665730000008586257405637307279_);">
				
					<image style="overflow:visible;" width="4500" height="3000" xlink:href="Sisters_ProductImages_003_HI-RES.jpg"  transform="matrix(0.4578 0 0 0.4578 1389.806 937.0372)">
				</image>
			</g>
		</g>
	</g>
	<path style="clip-path:url(#SVGID_00000178899730247178501310000015493332044935752119_);fill:#FAD568;" d="M3466.57,2092.34
		c-93.3,0-181.01-36.33-246.98-102.3c-65.97-65.97-102.3-153.68-102.3-246.98c0-93.3,36.33-181.01,102.3-246.98
		c65.97-65.97,153.68-102.3,246.98-102.3c93.3,0,181.01,36.33,246.98,102.3c65.97,65.97,102.3,153.68,102.3,246.98
		c0,93.3-36.33,181.01-102.3,246.98C3647.58,2056.01,3559.87,2092.34,3466.57,2092.34"/>
	<g style="clip-path:url(#SVGID_00000178899730247178501310000015493332044935752119_);">
		<text transform="matrix(1 0 0 1 3275.4543 1769.423)" class="st2 st3 st14">15.90</text>
	</g>
	<path style="clip-path:url(#SVGID_00000178899730247178501310000015493332044935752119_);fill:#FFFFFF;" d="M3466.57,1416.38
		c180.42,0,326.68,146.26,326.68,326.68c0,180.42-146.26,326.68-326.68,326.68c-180.42,0-326.68-146.26-326.68-326.68
		C3139.89,1562.65,3286.15,1416.38,3466.57,1416.38 M3466.57,1371.19c-50.18,0-98.89,9.84-144.76,29.24
		c-44.29,18.73-84.05,45.54-118.19,79.68c-34.14,34.14-60.95,73.9-79.68,118.19c-19.4,45.88-29.24,94.58-29.24,144.76
		c0,50.18,9.84,98.89,29.24,144.76c18.73,44.29,45.54,84.05,79.68,118.19c34.14,34.14,73.9,60.94,118.19,79.68
		c45.88,19.4,94.58,29.24,144.76,29.24c50.18,0,98.89-9.84,144.76-29.24c44.29-18.73,84.05-45.54,118.19-79.68
		c34.14-34.14,60.94-73.9,79.68-118.19c19.4-45.88,29.24-94.58,29.24-144.76c0-50.18-9.84-98.89-29.24-144.76
		c-18.73-44.29-45.54-84.05-79.68-118.19c-34.14-34.14-73.9-60.95-118.19-79.68C3565.46,1381.03,3516.76,1371.19,3466.57,1371.19"/>
</g>
<g>
	<defs>
		<rect id="SVGID_00000057828452160786808420000016073211083905378706_" x="0.56" y="0" width="3849.67" height="2409.82"/>
	</defs>
	<clipPath id="SVGID_00000180339799356681301570000008535036032977379987_">
		<use xlink:href="#SVGID_00000057828452160786808420000016073211083905378706_"  style="overflow:visible;"/>
	</clipPath>
</g>
</svg>
